STARTFONT 2.1
FONT -Mezgrman-Flipdot16-Narrow-R-Normal--16-150-75-75-P-48-ISO8859-1
SIZE 15 75 75
FONTBOUNDINGBOX 5 16 0 -3
COMMENT "Generated by fontforge, http://fontforge.sourceforge.net"
COMMENT "Copyright (c) 2016, Julian Metzler"
STARTPROPERTIES 30
FOUNDRY "Mezgrman"
FAMILY_NAME "Flipdot16"
WEIGHT_NAME "Narrow"
SLANT "R"
SETWIDTH_NAME "Normal"
ADD_STYLE_NAME ""
PIXEL_SIZE 16
POINT_SIZE 150
RESOLUTION_X 75
RESOLUTION_Y 75
SPACING "P"
AVERAGE_WIDTH 48
CHARSET_REGISTRY "ISO8859"
CHARSET_ENCODING "1"
FONTNAME_REGISTRY ""
CHARSET_COLLECTIONS "ISOLatin1Encoding"
FONT_NAME "Flipdot16"
FACE_NAME "Flipdot16"
FONT_VERSION "001.000"
FONT_ASCENT 13
FONT_DESCENT 3
UNDERLINE_POSITION -2
UNDERLINE_THICKNESS 1
X_HEIGHT 6
CAP_HEIGHT 12
RAW_ASCENT 800
RAW_DESCENT 200
NORM_SPACE 4
AVG_LOWERCASE_WIDTH 53
AVG_UPPERCASE_WIDTH 53
ENDPROPERTIES
CHARS 103
STARTCHAR space
ENCODING 32
SWIDTH 250 0
DWIDTH 4 0
BBX 1 1 4 0
BITMAP
00
ENDCHAR
STARTCHAR exclam
ENCODING 33
SWIDTH 125 0
DWIDTH 2 0
BBX 1 13 0 0
BITMAP
80
80
80
80
80
80
80
80
80
80
00
00
80
ENDCHAR
STARTCHAR quotedbl
ENCODING 34
SWIDTH 250 0
DWIDTH 4 0
BBX 3 3 0 10
BITMAP
A0
A0
A0
ENDCHAR
STARTCHAR numbersign
ENCODING 35
SWIDTH 375 0
DWIDTH 6 0
BBX 5 13 0 0
BITMAP
50
50
50
50
F8
50
50
50
F8
50
50
50
50
ENDCHAR
STARTCHAR dollar
ENCODING 36
SWIDTH 375 0
DWIDTH 6 0
BBX 5 13 0 0
BITMAP
20
70
A8
A0
A0
A0
70
28
28
28
A8
70
20
ENDCHAR
STARTCHAR percent
ENCODING 37
SWIDTH 375 0
DWIDTH 6 0
BBX 5 13 0 0
BITMAP
C8
C8
08
10
10
20
20
20
40
40
80
98
98
ENDCHAR
STARTCHAR ampersand
ENCODING 38
SWIDTH 375 0
DWIDTH 6 0
BBX 5 13 0 0
BITMAP
60
90
90
90
90
A0
40
A0
A8
90
90
90
68
ENDCHAR
STARTCHAR quotesingle
ENCODING 39
SWIDTH 125 0
DWIDTH 2 0
BBX 1 3 0 10
BITMAP
80
80
80
ENDCHAR
STARTCHAR parenleft
ENCODING 40
SWIDTH 187 0
DWIDTH 3 0
BBX 2 13 0 0
BITMAP
40
80
80
80
80
80
80
80
80
80
80
80
40
ENDCHAR
STARTCHAR parenright
ENCODING 41
SWIDTH 187 0
DWIDTH 3 0
BBX 2 13 0 0
BITMAP
80
40
40
40
40
40
40
40
40
40
40
40
80
ENDCHAR
STARTCHAR asterisk
ENCODING 42
SWIDTH 375 0
DWIDTH 6 0
BBX 5 5 0 4
BITMAP
A8
70
F8
70
A8
ENDCHAR
STARTCHAR plus
ENCODING 43
SWIDTH 375 0
DWIDTH 6 0
BBX 5 5 0 4
BITMAP
20
20
F8
20
20
ENDCHAR
STARTCHAR comma
ENCODING 44
SWIDTH 187 0
DWIDTH 3 0
BBX 2 3 0 -1
BITMAP
40
40
80
ENDCHAR
STARTCHAR hyphen
ENCODING 45
SWIDTH 312 0
DWIDTH 5 0
BBX 4 1 0 6
BITMAP
F0
ENDCHAR
STARTCHAR period
ENCODING 46
SWIDTH 125 0
DWIDTH 2 0
BBX 1 1 0 0
BITMAP
80
ENDCHAR
STARTCHAR slash
ENCODING 47
SWIDTH 1000 0
DWIDTH 6 0
BBX 5 13 0 0
BITMAP
08
08
08
10
10
20
20
20
40
40
80
80
80
ENDCHAR
STARTCHAR zero
ENCODING 48
SWIDTH 1000 0
DWIDTH 5 0
BBX 4 13 0 0
BITMAP
60
90
90
90
90
90
90
90
90
90
90
90
60
ENDCHAR
STARTCHAR one
ENCODING 49
SWIDTH 250 0
DWIDTH 4 0
BBX 3 13 0 0
BITMAP
40
C0
40
40
40
40
40
40
40
40
40
40
E0
ENDCHAR
STARTCHAR two
ENCODING 50
SWIDTH 312 0
DWIDTH 5 0
BBX 4 13 0 0
BITMAP
60
90
90
10
10
20
20
40
40
80
80
80
F0
ENDCHAR
STARTCHAR three
ENCODING 51
SWIDTH 312 0
DWIDTH 5 0
BBX 4 13 0 0
BITMAP
60
90
10
10
10
10
20
10
10
10
10
90
60
ENDCHAR
STARTCHAR four
ENCODING 52
SWIDTH 312 0
DWIDTH 5 0
BBX 4 13 0 0
BITMAP
10
20
20
40
40
90
90
F0
10
10
10
10
10
ENDCHAR
STARTCHAR five
ENCODING 53
SWIDTH 312 0
DWIDTH 5 0
BBX 4 13 0 0
BITMAP
F0
80
80
80
80
E0
10
10
10
10
10
90
60
ENDCHAR
STARTCHAR six
ENCODING 54
SWIDTH 1000 0
DWIDTH 5 0
BBX 4 13 0 0
BITMAP
60
90
80
80
80
E0
90
90
90
90
90
90
60
ENDCHAR
STARTCHAR seven
ENCODING 55
SWIDTH 312 0
DWIDTH 5 0
BBX 4 13 0 0
BITMAP
F0
10
10
10
20
20
40
40
40
40
40
40
40
ENDCHAR
STARTCHAR eight
ENCODING 56
SWIDTH 312 0
DWIDTH 5 0
BBX 4 13 0 0
BITMAP
60
90
90
90
90
90
60
90
90
90
90
90
60
ENDCHAR
STARTCHAR nine
ENCODING 57
SWIDTH 1000 0
DWIDTH 5 0
BBX 4 13 0 0
BITMAP
60
90
90
90
90
90
90
70
10
10
10
90
60
ENDCHAR
STARTCHAR colon
ENCODING 58
SWIDTH 125 0
DWIDTH 2 0
BBX 1 5 0 2
BITMAP
80
00
00
00
80
ENDCHAR
STARTCHAR semicolon
ENCODING 59
SWIDTH 187 0
DWIDTH 3 0
BBX 2 7 0 0
BITMAP
40
00
00
00
40
40
80
ENDCHAR
STARTCHAR less
ENCODING 60
SWIDTH 312 0
DWIDTH 5 0
BBX 4 7 0 3
BITMAP
10
20
40
80
40
20
10
ENDCHAR
STARTCHAR equal
ENCODING 61
SWIDTH 1000 0
DWIDTH 5 0
BBX 4 3 0 5
BITMAP
F0
00
F0
ENDCHAR
STARTCHAR greater
ENCODING 62
SWIDTH 312 0
DWIDTH 5 0
BBX 4 7 0 3
BITMAP
80
40
20
10
20
40
80
ENDCHAR
STARTCHAR question
ENCODING 63
SWIDTH 312 0
DWIDTH 5 0
BBX 4 13 0 0
BITMAP
60
90
10
10
10
20
20
40
40
40
00
00
40
ENDCHAR
STARTCHAR at
ENCODING 64
SWIDTH 375 0
DWIDTH 6 0
BBX 5 8 0 0
BITMAP
70
88
A8
A8
A8
B8
80
78
ENDCHAR
STARTCHAR A
ENCODING 65
SWIDTH 375 0
DWIDTH 6 0
BBX 5 13 0 0
BITMAP
20
50
88
88
88
88
F8
88
88
88
88
88
88
ENDCHAR
STARTCHAR B
ENCODING 66
SWIDTH 312 0
DWIDTH 5 0
BBX 4 13 0 0
BITMAP
E0
90
90
90
90
90
E0
90
90
90
90
90
E0
ENDCHAR
STARTCHAR C
ENCODING 67
SWIDTH 312 0
DWIDTH 5 0
BBX 4 13 0 0
BITMAP
60
90
80
80
80
80
80
80
80
80
80
90
60
ENDCHAR
STARTCHAR D
ENCODING 68
SWIDTH 312 0
DWIDTH 5 0
BBX 4 13 0 0
BITMAP
E0
90
90
90
90
90
90
90
90
90
90
90
E0
ENDCHAR
STARTCHAR E
ENCODING 69
SWIDTH 312 0
DWIDTH 5 0
BBX 4 13 0 0
BITMAP
F0
80
80
80
80
80
E0
80
80
80
80
80
F0
ENDCHAR
STARTCHAR F
ENCODING 70
SWIDTH 312 0
DWIDTH 5 0
BBX 4 13 0 0
BITMAP
F0
80
80
80
80
80
E0
80
80
80
80
80
80
ENDCHAR
STARTCHAR G
ENCODING 71
SWIDTH 312 0
DWIDTH 5 0
BBX 4 13 0 0
BITMAP
60
90
80
80
80
80
B0
90
90
90
90
90
60
ENDCHAR
STARTCHAR H
ENCODING 72
SWIDTH 312 0
DWIDTH 5 0
BBX 4 13 0 0
BITMAP
90
90
90
90
90
90
F0
90
90
90
90
90
90
ENDCHAR
STARTCHAR I
ENCODING 73
SWIDTH 250 0
DWIDTH 4 0
BBX 3 13 0 0
BITMAP
E0
40
40
40
40
40
40
40
40
40
40
40
E0
ENDCHAR
STARTCHAR J
ENCODING 74
SWIDTH 312 0
DWIDTH 5 0
BBX 4 13 0 0
BITMAP
10
10
10
10
10
10
10
10
10
10
10
90
60
ENDCHAR
STARTCHAR K
ENCODING 75
SWIDTH 312 0
DWIDTH 5 0
BBX 4 13 0 0
BITMAP
90
90
90
90
90
A0
C0
A0
90
90
90
90
90
ENDCHAR
STARTCHAR L
ENCODING 76
SWIDTH 312 0
DWIDTH 5 0
BBX 4 13 0 0
BITMAP
80
80
80
80
80
80
80
80
80
80
80
80
F0
ENDCHAR
STARTCHAR M
ENCODING 77
SWIDTH 375 0
DWIDTH 6 0
BBX 5 13 0 0
BITMAP
88
88
D8
D8
A8
A8
88
88
88
88
88
88
88
ENDCHAR
STARTCHAR N
ENCODING 78
SWIDTH 375 0
DWIDTH 6 0
BBX 5 13 0 0
BITMAP
88
88
C8
C8
A8
A8
98
98
88
88
88
88
88
ENDCHAR
STARTCHAR O
ENCODING 79
SWIDTH 312 0
DWIDTH 5 0
BBX 4 13 0 0
BITMAP
60
90
90
90
90
90
90
90
90
90
90
90
60
ENDCHAR
STARTCHAR P
ENCODING 80
SWIDTH 312 0
DWIDTH 5 0
BBX 4 13 0 0
BITMAP
E0
90
90
90
90
90
E0
80
80
80
80
80
80
ENDCHAR
STARTCHAR Q
ENCODING 81
SWIDTH 375 0
DWIDTH 6 0
BBX 5 14 0 -1
BITMAP
60
90
90
90
90
90
90
90
90
90
90
B0
70
08
ENDCHAR
STARTCHAR R
ENCODING 82
SWIDTH 312 0
DWIDTH 5 0
BBX 4 13 0 0
BITMAP
E0
90
90
90
90
90
E0
C0
A0
90
90
90
90
ENDCHAR
STARTCHAR S
ENCODING 83
SWIDTH 312 0
DWIDTH 5 0
BBX 4 13 0 0
BITMAP
60
90
80
80
80
80
60
10
10
10
10
90
60
ENDCHAR
STARTCHAR T
ENCODING 84
SWIDTH 375 0
DWIDTH 6 0
BBX 5 13 0 0
BITMAP
F8
20
20
20
20
20
20
20
20
20
20
20
20
ENDCHAR
STARTCHAR U
ENCODING 85
SWIDTH 312 0
DWIDTH 5 0
BBX 4 13 0 0
BITMAP
90
90
90
90
90
90
90
90
90
90
90
90
60
ENDCHAR
STARTCHAR V
ENCODING 86
SWIDTH 375 0
DWIDTH 6 0
BBX 5 13 0 0
BITMAP
88
88
88
88
88
88
88
88
88
88
88
50
20
ENDCHAR
STARTCHAR W
ENCODING 87
SWIDTH 375 0
DWIDTH 6 0
BBX 5 13 0 0
BITMAP
88
88
88
88
88
88
88
A8
A8
D8
D8
88
88
ENDCHAR
STARTCHAR X
ENCODING 88
SWIDTH 375 0
DWIDTH 6 0
BBX 5 13 0 0
BITMAP
88
88
88
50
50
20
20
20
50
50
88
88
88
ENDCHAR
STARTCHAR Y
ENCODING 89
SWIDTH 1000 0
DWIDTH 6 0
BBX 5 13 0 0
BITMAP
88
88
88
88
50
50
50
20
20
20
20
20
20
ENDCHAR
STARTCHAR Z
ENCODING 90
SWIDTH 375 0
DWIDTH 6 0
BBX 5 13 0 0
BITMAP
F8
08
08
08
10
10
20
40
40
80
80
80
F8
ENDCHAR
STARTCHAR bracketleft
ENCODING 91
SWIDTH 187 0
DWIDTH 3 0
BBX 2 13 0 0
BITMAP
C0
80
80
80
80
80
80
80
80
80
80
80
C0
ENDCHAR
STARTCHAR backslash
ENCODING 92
SWIDTH 1000 0
DWIDTH 6 0
BBX 5 13 0 0
BITMAP
80
80
80
40
40
20
20
20
10
10
08
08
08
ENDCHAR
STARTCHAR bracketright
ENCODING 93
SWIDTH 187 0
DWIDTH 3 0
BBX 2 13 0 0
BITMAP
C0
40
40
40
40
40
40
40
40
40
40
40
C0
ENDCHAR
STARTCHAR asciicircum
ENCODING 94
SWIDTH 375 0
DWIDTH 6 0
BBX 5 3 0 10
BITMAP
20
50
88
ENDCHAR
STARTCHAR underscore
ENCODING 95
SWIDTH 312 0
DWIDTH 5 0
BBX 4 1 0 0
BITMAP
F0
ENDCHAR
STARTCHAR grave
ENCODING 96
SWIDTH 250 0
DWIDTH 4 0
BBX 3 3 0 10
BITMAP
80
40
20
ENDCHAR
STARTCHAR a
ENCODING 97
SWIDTH 312 0
DWIDTH 5 0
BBX 4 7 0 0
BITMAP
60
90
10
70
90
B0
50
ENDCHAR
STARTCHAR b
ENCODING 98
SWIDTH 312 0
DWIDTH 5 0
BBX 4 13 0 0
BITMAP
80
80
80
80
80
80
A0
D0
90
90
90
D0
A0
ENDCHAR
STARTCHAR c
ENCODING 99
SWIDTH 312 0
DWIDTH 5 0
BBX 4 7 0 0
BITMAP
60
90
80
80
80
90
60
ENDCHAR
STARTCHAR d
ENCODING 100
SWIDTH 1000 0
DWIDTH 5 0
BBX 4 13 0 0
BITMAP
10
10
10
10
10
10
50
B0
90
90
90
B0
50
ENDCHAR
STARTCHAR e
ENCODING 101
SWIDTH 312 0
DWIDTH 5 0
BBX 4 7 0 0
BITMAP
60
90
90
F0
80
90
60
ENDCHAR
STARTCHAR f
ENCODING 102
SWIDTH 312 0
DWIDTH 5 0
BBX 4 13 0 0
BITMAP
20
50
40
40
40
40
E0
40
40
40
40
40
40
ENDCHAR
STARTCHAR g
ENCODING 103
SWIDTH 312 0
DWIDTH 5 0
BBX 4 10 0 -3
BITMAP
50
B0
90
90
90
B0
50
10
90
60
ENDCHAR
STARTCHAR h
ENCODING 104
SWIDTH 1000 0
DWIDTH 5 0
BBX 4 13 0 0
BITMAP
80
80
80
80
80
80
A0
D0
90
90
90
90
90
ENDCHAR
STARTCHAR i
ENCODING 105
SWIDTH 125 0
DWIDTH 2 0
BBX 1 10 0 0
BITMAP
80
00
00
00
80
80
80
80
80
80
ENDCHAR
STARTCHAR j
ENCODING 106
SWIDTH 312 0
DWIDTH 5 0
BBX 4 13 0 -3
BITMAP
10
00
00
00
10
10
10
10
10
10
10
90
60
ENDCHAR
STARTCHAR k
ENCODING 107
SWIDTH 312 0
DWIDTH 5 0
BBX 4 13 0 0
BITMAP
80
80
80
80
80
90
A0
A0
C0
C0
A0
A0
90
ENDCHAR
STARTCHAR l
ENCODING 108
SWIDTH 125 0
DWIDTH 2 0
BBX 1 13 0 0
BITMAP
80
80
80
80
80
80
80
80
80
80
80
80
80
ENDCHAR
STARTCHAR m
ENCODING 109
SWIDTH 375 0
DWIDTH 6 0
BBX 5 7 0 0
BITMAP
D0
A8
A8
A8
A8
A8
A8
ENDCHAR
STARTCHAR n
ENCODING 110
SWIDTH 312 0
DWIDTH 5 0
BBX 4 7 0 0
BITMAP
A0
D0
90
90
90
90
90
ENDCHAR
STARTCHAR o
ENCODING 111
SWIDTH 312 0
DWIDTH 5 0
BBX 4 7 0 0
BITMAP
60
90
90
90
90
90
60
ENDCHAR
STARTCHAR p
ENCODING 112
SWIDTH 312 0
DWIDTH 5 0
BBX 4 10 0 -3
BITMAP
A0
D0
90
90
90
D0
A0
80
80
80
ENDCHAR
STARTCHAR q
ENCODING 113
SWIDTH 1000 0
DWIDTH 5 0
BBX 4 10 0 -3
BITMAP
50
B0
90
90
90
B0
50
10
10
10
ENDCHAR
STARTCHAR r
ENCODING 114
SWIDTH 312 0
DWIDTH 5 0
BBX 4 7 0 0
BITMAP
A0
D0
80
80
80
80
80
ENDCHAR
STARTCHAR s
ENCODING 115
SWIDTH 312 0
DWIDTH 5 0
BBX 4 7 0 0
BITMAP
60
90
80
60
10
90
60
ENDCHAR
STARTCHAR t
ENCODING 116
SWIDTH 312 0
DWIDTH 5 0
BBX 4 13 0 0
BITMAP
40
40
40
40
40
E0
40
40
40
40
40
50
20
ENDCHAR
STARTCHAR u
ENCODING 117
SWIDTH 1000 0
DWIDTH 5 0
BBX 4 7 0 0
BITMAP
90
90
90
90
90
B0
50
ENDCHAR
STARTCHAR v
ENCODING 118
SWIDTH 375 0
DWIDTH 6 0
BBX 5 7 0 0
BITMAP
88
88
88
88
88
50
20
ENDCHAR
STARTCHAR w
ENCODING 119
SWIDTH 375 0
DWIDTH 6 0
BBX 5 7 0 0
BITMAP
88
88
88
88
A8
A8
50
ENDCHAR
STARTCHAR x
ENCODING 120
SWIDTH 375 0
DWIDTH 6 0
BBX 5 7 0 0
BITMAP
88
88
50
20
50
88
88
ENDCHAR
STARTCHAR y
ENCODING 121
SWIDTH 375 0
DWIDTH 6 0
BBX 5 10 0 -3
BITMAP
88
88
88
88
88
50
20
20
20
C0
ENDCHAR
STARTCHAR z
ENCODING 122
SWIDTH 312 0
DWIDTH 5 0
BBX 4 7 0 0
BITMAP
F0
10
10
60
80
80
F0
ENDCHAR
STARTCHAR braceleft
ENCODING 123
SWIDTH 250 0
DWIDTH 4 0
BBX 3 13 0 0
BITMAP
20
40
40
40
40
40
80
40
40
40
40
40
20
ENDCHAR
STARTCHAR bar
ENCODING 124
SWIDTH 125 0
DWIDTH 2 0
BBX 1 13 0 0
BITMAP
80
80
80
80
80
80
80
80
80
80
80
80
80
ENDCHAR
STARTCHAR braceright
ENCODING 125
SWIDTH 250 0
DWIDTH 4 0
BBX 3 13 0 0
BITMAP
80
40
40
40
40
40
20
40
40
40
40
40
80
ENDCHAR
STARTCHAR asciitilde
ENCODING 126
SWIDTH 375 0
DWIDTH 6 0
BBX 5 3 0 5
BITMAP
40
A8
10
ENDCHAR
STARTCHAR degree
ENCODING 176
SWIDTH 312 0
DWIDTH 5 0
BBX 4 4 0 9
BITMAP
60
90
90
60
ENDCHAR
STARTCHAR Adieresis
ENCODING 196
SWIDTH 1000 0
DWIDTH 6 0
BBX 5 13 0 0
BITMAP
88
00
20
50
88
88
F8
88
88
88
88
88
88
ENDCHAR
STARTCHAR Odieresis
ENCODING 214
SWIDTH 1000 0
DWIDTH 5 0
BBX 4 13 0 0
BITMAP
90
00
60
90
90
90
90
90
90
90
90
90
60
ENDCHAR
STARTCHAR Udieresis
ENCODING 220
SWIDTH 1000 0
DWIDTH 5 0
BBX 4 13 0 0
BITMAP
90
00
00
90
90
90
90
90
90
90
90
90
60
ENDCHAR
STARTCHAR germandbls
ENCODING 223
SWIDTH 312 0
DWIDTH 5 0
BBX 4 13 0 0
BITMAP
60
90
90
90
90
A0
90
90
90
90
90
A0
80
ENDCHAR
STARTCHAR adieresis
ENCODING 228
SWIDTH 1000 0
DWIDTH 5 0
BBX 4 9 0 0
BITMAP
90
00
60
90
10
70
90
B0
50
ENDCHAR
STARTCHAR odieresis
ENCODING 246
SWIDTH 1000 0
DWIDTH 5 0
BBX 4 9 0 0
BITMAP
90
00
60
90
90
90
90
90
60
ENDCHAR
STARTCHAR udieresis
ENCODING 252
SWIDTH 1000 0
DWIDTH 5 0
BBX 4 10 0 0
BITMAP
90
00
00
90
90
90
90
90
B0
50
ENDCHAR
ENDFONT
